<svg xmlns="http://www.w3.org/2000/svg" xmlns:xlink="http://www.w3.org/1999/xlink" version="1.1" width="1000" height="1000" viewBox="0 0 1000 1000" xml:space="preserve">
<desc>Created with Fabric.js 3.5.0</desc>
<defs>
</defs>
<rect x="0" y="0" width="100%" height="100%" fill="rgba(0,0,153,0)"/>
<g transform="matrix(13.7817 0 0 13.7817 499.9984 499.9986)" id="614449">
<linearGradient id="SVGID_6" gradientUnits="objectBoundingBox" gradientTransform="matrix(1 0 0 1 3.0329 3.2932)" x1="0" y1="1" x2="1" y2="0">
<stop offset="0%" style="stop-color:rgb(248,117,55);stop-opacity: 1"/>
<stop offset="100%" style="stop-color:rgb(90,251,31);stop-opacity: 1"/>
</linearGradient>
<path style="stroke: none; stroke-width: 0; stroke-dasharray: none; stroke-linecap: butt; stroke-dashoffset: 0; stroke-linejoin: miter; stroke-miterlimit: 4; is-custom-font: none; font-file-url: none; fill: url(#SVGID_6); fill-rule: nonzero; opacity: 0.06;" vector-effect="non-scaling-stroke" transform=" translate(-3.0329, -3.2932)" d="M 12.3 -15.4 C 18.7 -17.7 28.3 -19.8 32.9 -17.2 C 37.4 -14.6 36.9 -7.3 32.2 -2.7 C 27.5 1.9 18.6 3.7 14.1 6.4 C 9.6 9.1 9.4 12.6 7.8 18.4 C 6.2 24.1 3.1 32 -0.2 32.3 C -3.4 32.5 -6.8 25.2 -8.1 19.2 C -9.3 13.3 -8.3 8.8 -11.8 5.8 C -15.2 2.8 -23 1.4 -26.9 -2.2 C -30.7 -5.9 -30.6 -11.8 -28.5 -17 C -26.5 -22.3 -22.4 -27 -17.3 -25.4 C -12.2 -23.9 -6.1 -16.1 -1.5 -13.4 C 3 -10.7 6 -13.1 12.3 -15.4 Z" stroke-linecap="round"/>
</g>
</svg>